<svg width="40" height="48" viewBox="0 0 40 48" fill="none" xmlns="http://www.w3.org/2000/svg">
<path d="M28.197 0.0522537C25.9712 0.309285 22.8212 2.27257 21.2571 4.37257C20.3548 5.57569 19.8243 6.72413 19.3649 8.45225L19.1353 9.31632L19.1462 10.2351C19.1571 10.7382 19.1845 11.2085 19.2118 11.2851C19.2829 11.4655 19.4196 11.4929 20.3821 11.4983C21.1806 11.5038 21.2298 11.4983 21.9134 11.296C23.7399 10.7655 25.0798 9.9671 26.0313 8.83507C26.261 8.55616 26.6056 8.18428 26.786 7.99835C27.3876 7.40772 28.1587 6.09522 28.5853 4.95772C29.0118 3.81475 29.2032 2.75382 29.2579 1.24444L29.2907 0.276472L29.1485 0.134285C28.9899 -0.0243092 28.9024 -0.0297775 28.197 0.0522537Z" fill="#717171"/>
<path d="M27.6884 11.3562C26.6056 11.4109 23.6907 12.2202 21.5962 13.0405C20.3274 13.5382 20.3274 13.5382 20.0759 13.5819C19.6384 13.653 18.5665 13.3413 16.7235 12.5976C15.7446 12.2093 14.7384 11.914 13.2509 11.5749C12.6274 11.4382 11.5939 11.4218 11.1454 11.5476C10.9649 11.5968 10.3962 11.7116 9.88214 11.7991C8.77745 11.996 8.15401 12.1874 7.32276 12.5976C4.8126 13.8226 3.10089 15.5835 1.74464 18.3398C1.14307 19.5538 0.700105 20.7405 0.37198 22.0038C-0.114739 23.8796 -0.125676 27.478 0.350105 29.6601C0.404792 29.928 0.454011 30.2452 0.454011 30.371C0.454011 30.6335 0.50323 30.8304 0.962605 32.6405C1.38917 34.314 1.34542 34.1773 2.16026 36.2226C3.30323 39.0937 3.66417 39.728 5.99932 42.9491C6.95635 44.2671 7.44307 44.8687 8.14854 45.5851C8.88682 46.3398 9.48292 46.7773 10.3251 47.1929C11.2767 47.6577 11.6923 47.7616 12.5673 47.7562C13.6884 47.7562 14.5907 47.5265 16.3079 46.8046C17.3907 46.3507 17.4618 46.3288 19.4306 45.9241C20.0212 45.7984 20.5681 45.8093 21.3993 45.946C21.6837 45.9898 22.1103 46.0554 22.3399 46.0882C22.8048 46.1538 23.2751 46.3069 24.4892 46.7937C25.9548 47.3843 26.9884 47.6468 28.0712 47.7124C29.6462 47.8109 31.1665 47.1109 32.7907 45.5523C34.4478 43.9499 35.9954 41.7569 37.5595 38.7984C37.9806 37.9999 38.6532 36.3648 38.7681 35.8726C38.8173 35.6757 38.8993 35.4296 38.9595 35.3312C39.0142 35.2327 39.0634 35.096 39.0634 35.0359C39.0634 34.839 38.6642 34.5273 37.9587 34.1718C36.6298 33.4882 35.3228 32.3179 34.4423 30.9999C33.8134 30.0538 33.179 28.6374 33.0204 27.8007C32.7524 26.4226 32.6759 24.9132 32.829 23.8632C32.8673 23.5898 33.004 23.0155 33.1353 22.578C33.6985 20.6804 34.0868 19.9202 34.9673 18.9796C35.2353 18.7007 35.454 18.4437 35.454 18.4218C35.454 18.3288 36.7939 17.2077 37.122 17.0273C37.3024 16.9234 37.5321 16.7648 37.6306 16.6663C37.9314 16.371 37.8876 16.2562 37.1329 15.3702C36.1212 14.1835 34.847 13.2101 33.3485 12.4827C32.4134 12.0288 31.7681 11.8046 30.8657 11.6187C29.9415 11.4218 28.5634 11.3069 27.6884 11.3562Z" fill="#717171"/>
</svg>
